<svg xmlns="http://www.w3.org/2000/svg" width="21" height="24.077" viewBox="0 0 21 24.077">
  <path id="Exclusion_1" data-name="Exclusion 1" d="M10.077,23.077a.985.985,0,0,1-.691-.279L2.906,16.491a9.585,9.585,0,0,1-2.18-3.2,9.456,9.456,0,0,1,0-7.27,9.584,9.584,0,0,1,2.18-3.2A9.885,9.885,0,0,1,6.189.707a10.209,10.209,0,0,1,7.468,0A9.886,9.886,0,0,1,16.94,2.829l.154.15a9.584,9.584,0,0,1,2.18,3.2,9.456,9.456,0,0,1,0,7.27,9.584,9.584,0,0,1-2.18,3.2L10.768,22.8A.985.985,0,0,1,10.077,23.077ZM9.954,3.894a6,6,0,0,0-4.21,1.7,5.688,5.688,0,0,0,0,8.2l.092.089a6.069,6.069,0,0,0,8.42,0,5.687,5.687,0,0,0,0-8.2l-.092-.09A6,6,0,0,0,9.954,3.894Z" transform="translate(0.5 0.5)" fill="rgba(0,0,0,0)" stroke="#fff" stroke-linecap="round" stroke-width="1"/>
</svg>
