<svg xmlns="http://www.w3.org/2000/svg" width="41.291" height="41.278" viewBox="0 0 41.291 41.278">
  <path id="Union_3" data-name="Union 3" d="M3.54,29.551A19.329,19.329,0,0,1,.727,19.486c0-.285.009-.57.018-.854a19.642,19.642,0,0,1,39.247.358c.009.165.009.331.009.5A19.661,19.661,0,0,1,10.876,36.545L0,40Zm16.823,6.314A16.464,16.464,0,0,0,36.875,19.486c0-.432-.018-.854-.055-1.277A16.518,16.518,0,0,0,3.934,17.9a15.351,15.351,0,0,0-.082,1.589A16.213,16.213,0,0,0,7,29.091L4.937,35.176l6.343-2.022A16.453,16.453,0,0,0,20.363,35.865Zm.607-8.539c-4.891-1.921-7.979-6.9-8.219-7.215A10.821,10.821,0,0,1,11.033,16.8a6.049,6.049,0,0,1-.248-1.627,5.35,5.35,0,0,1,1.681-3.989,1.781,1.781,0,0,1,1.288-.6c.322,0,.644.046.919.046s.689-.165,1.085.79,1.37,3.308,1.49,3.548a.864.864,0,0,1,.037.836,5.53,5.53,0,0,1-.3.57c-.055.074-.11.147-.176.231-.247.275-.5.616-.726.836-.238.239-.487.5-.212.975a14.3,14.3,0,0,0,2.676,3.3,13,13,0,0,0,3.87,2.37c.487.24.763.2,1.047-.119s1.205-1.388,1.527-1.866.643-.4,1.085-.24,2.8,1.316,3.292,1.554.8.359.919.552A3.942,3.942,0,0,1,30,26.242c-.395,1.121-2.363,2.2-3.245,2.271a7.484,7.484,0,0,1-1.076.167C25,28.68,23.809,28.429,20.97,27.326Z" transform="translate(0.791 0.5)" fill="#fff" stroke="rgba(0,0,0,0)" stroke-width="1"/>
</svg>